<svg width="29" height="32" viewBox="0 0 29 32" fill="none" xmlns="http://www.w3.org/2000/svg">
<path d="M0 30.4294C0 30.846 0.165468 31.2455 0.460004 31.54C0.75454 31.8345 1.15402 32 1.57055 32H17.6177C18.0342 32 18.4337 31.8345 18.7282 31.54C19.0228 31.2455 19.1882 30.846 19.1882 30.4294V24.9011C19.1882 24.4846 19.0228 24.0851 18.7282 23.7906C18.4337 23.496 18.0342 23.3306 17.6177 23.3306C17.2011 23.3306 16.8017 23.496 16.5071 23.7906C16.2126 24.0851 16.0471 24.4846 16.0471 24.9011V28.8589H3.1411V3.1411H16.0471V7.0989C16.0471 7.51543 16.2126 7.91491 16.5071 8.20944C16.8017 8.50398 17.2011 8.66945 17.6177 8.66945C18.0342 8.66945 18.4337 8.50398 18.7282 8.20944C19.0228 7.91491 19.1882 7.51543 19.1882 7.0989V1.57055C19.1882 1.15402 19.0228 0.75454 18.7282 0.460004C18.4337 0.165468 18.0342 0 17.6177 0H1.57055C1.15402 0 0.75454 0.165468 0.460004 0.460004C0.165468 0.75454 0 1.15402 0 1.57055V30.4294Z" fill="#E96262"/>
<path d="M28.0736 14.9242L22.6631 9.17593C22.3777 8.87238 21.9835 8.69461 21.5671 8.68172C21.1507 8.66884 20.7462 8.82189 20.4427 9.10722C20.1391 9.39255 19.9614 9.78677 19.9485 10.2032C19.9356 10.6196 20.0887 11.024 20.374 11.3276L23.2795 14.4294H9.28588C8.86935 14.4294 8.46987 14.5949 8.17534 14.8894C7.8808 15.184 7.71533 15.5834 7.71533 16C7.71533 16.4165 7.8808 16.816 8.17534 17.1105C8.46987 17.4051 8.86935 17.5705 9.28588 17.5705H23.2795L20.374 20.6724C20.0887 20.9759 19.9356 21.3804 19.9485 21.7968C19.9614 22.2132 20.1391 22.6074 20.4427 22.8927C20.7462 23.1781 21.1507 23.3311 21.5671 23.3182C21.9835 23.3054 22.3777 23.1276 22.6631 22.824L28.0736 17.0758C28.3475 16.7845 28.5 16.3998 28.5 16C28.5 15.6002 28.3475 15.2154 28.0736 14.9242Z" fill="#E96262"/>
</svg>
