<svg width="27" height="32" viewBox="0 0 27 32" fill="none" xmlns="http://www.w3.org/2000/svg">
<path d="M5.81818 32C5.81818 32 20.3636 32 23.2727 32C25.0182 32 26.1818 30.8364 26.1818 29.0909V5.81818C26.1818 4.07273 26.1818 4.07273 25.6 3.49091L22.6909 0.581818C22.1091 -5.08627e-08 22.1091 0 20.0145 0C20.0145 0 5.81818 0 2.90909 0C1.16364 0 0 1.16364 0 2.90909C0 2.90909 0 23.2727 0 26.1818C0 27.9273 -2.54314e-07 27.9273 0.581818 28.5091L3.49091 31.4182C4.07273 32 4.07273 32 5.81818 32ZM22.3097 4.07273C23.4734 4.07273 24.0552 4.65455 24.0552 5.81818C24.0552 5.81818 24.0552 27.7066 24.0552 28.2884C24.0552 29.452 23.4734 30.0339 22.3097 30.0339C22.3097 30.0339 6.4 30.0339 5.81818 30.0339C4.65455 30.0339 4.07273 29.452 4.07273 28.2884C4.07273 28.2884 4.07273 6.4 4.07273 5.81818C4.07273 4.65455 4.65455 4.07273 5.81818 4.07273C6.4 4.07273 21.7279 4.07273 22.3097 4.07273Z" fill="#130F40"/>
</svg>
