<svg width="27" height="32" viewBox="0 0 27 32" fill="none" xmlns="http://www.w3.org/2000/svg">
<path d="M24.2667 19.0133V13.6C24.2667 10.6667 23.1333 7.92 21.0667 5.88C19.3333 4.13333 17.0933 3.05333 14.6667 2.76V1.33333C14.6667 0.6 14.0667 0 13.3333 0C12.6 0 12 0.6 12 1.33333V2.76C6.6 3.42667 2.4 8.02667 2.4 13.6V19.0133C0.973333 19.6267 0 21.04 0 22.6667C0 24.8667 1.8 26.6667 4 26.6667H6.8C7.41333 29.7067 10.1067 32 13.3333 32C16.56 32 19.24 29.7067 19.8667 26.6667H22.6667C24.8667 26.6667 26.6667 24.8667 26.6667 22.6667C26.6667 21.04 25.6933 19.6267 24.2667 19.0133ZM13.3333 29.3333C11.6 29.3333 10.1333 28.2133 9.57333 26.6667H17.08C16.5333 28.2133 15.0667 29.3333 13.3333 29.3333ZM22.6667 24H4C3.26667 24 2.66667 23.4 2.66667 22.6667C2.66667 21.9867 3.18667 21.4267 3.86667 21.36C4.54667 21.2933 5.06667 20.72 5.06667 20.0267V13.6C5.06667 9.04 8.77333 5.33333 13.3333 5.33333C15.5467 5.33333 17.6267 6.18667 19.1867 7.76C20.7467 9.30667 21.6 11.3867 21.6 13.6V20.0267C21.6 20.7067 22.12 21.28 22.8 21.36C23.48 21.4267 24 21.9867 24 22.6667C24 23.4 23.4 24 22.6667 24Z" fill="#130F40"/>
</svg>
