<svg width="30" height="32" viewBox="0 0 30 32" fill="none" xmlns="http://www.w3.org/2000/svg">
<path d="M14.5452 0C19.2039 0 23.024 3.82011 23.024 8.47878C23.024 13.1374 19.2039 16.8644 14.5452 16.8644C9.88652 16.8644 6.06641 13.1374 6.06641 8.47878C6.06641 3.82011 9.88652 0 14.5452 0ZM14.5452 2.32933C11.1909 2.32933 8.48891 5.12454 8.48891 8.47878C8.48891 11.833 11.1909 14.5351 14.5452 14.5351C17.8994 14.5351 20.6946 11.833 20.6946 8.47878C20.6946 5.12454 17.8994 2.32933 14.5452 2.32933Z" fill="#130F40"/>
<path d="M14.5453 17.6098C22.0923 17.6098 28.3349 23.3866 29.0803 30.7473C29.2667 32.238 26.9373 32.5175 26.751 30.9336C26.0988 24.7842 20.8811 19.9391 14.5453 19.9391C8.20948 19.9391 2.99177 24.7842 2.33956 30.9336C2.24638 32.5175 -0.176127 32.238 0.0102201 30.7473C0.755607 23.3866 6.99823 17.6098 14.5453 17.6098Z" fill="#130F40"/>
</svg>
