<svg width="42" height="32" viewBox="0 0 42 32" fill="none" xmlns="http://www.w3.org/2000/svg">
<path d="M39.5173 32H2.06897C0.896552 32 0 31.1034 0 29.931C0 28.7586 0.896552 27.8621 2.06897 27.8621H39.5862C40.7586 27.8621 41.6552 28.7586 41.6552 29.931C41.6552 31.1034 40.6897 32 39.5173 32Z" fill="#130F40"/>
<path d="M8.75891 29.9311C7.58649 29.9311 6.68994 29.0345 6.68994 27.8621V19.3104C6.68994 18.1379 7.58649 17.2414 8.75891 17.2414C9.93132 17.2414 10.8279 18.1379 10.8279 19.3104V27.8621C10.8279 28.9655 9.93132 29.9311 8.75891 29.9311Z" fill="#130F40"/>
<path d="M17.1725 29.931C16.0001 29.931 15.1035 29.0345 15.1035 27.8621V7.58621C15.1035 6.41379 16.0001 5.51724 17.1725 5.51724C18.3449 5.51724 19.2414 6.41379 19.2414 7.58621V27.8621C19.2414 28.9655 18.2759 29.931 17.1725 29.931Z" fill="#130F40"/>
<path d="M25.6554 29.931C24.483 29.931 23.5864 29.0345 23.5864 27.8621V12.4138C23.5864 11.2414 24.483 10.3448 25.6554 10.3448C26.8278 10.3448 27.7244 11.2414 27.7244 12.4138V27.8621C27.7244 28.9655 26.8278 29.931 25.6554 29.931Z" fill="#130F40"/>
<path d="M33.3795 29.931C32.2071 29.931 31.3105 29.0345 31.3105 27.8621V2.06897C31.3105 0.896552 32.2071 0 33.3795 0C34.5519 0 35.4485 0.896552 35.4485 2.06897V27.8621C35.4485 28.9655 34.483 29.931 33.3795 29.931Z" fill="#130F40"/>
</svg>
