<svg width="31" height="32" viewBox="0 0 31 32" fill="none" xmlns="http://www.w3.org/2000/svg">
<path d="M6.94857 13.9429C3.10857 13.9429 0 10.8343 0 6.99428C0 3.10857 3.10857 0 6.94857 0C10.7886 0 13.8971 3.10857 13.8971 6.94857C13.9429 10.7886 10.7886 13.9429 6.94857 13.9429ZM6.94857 3.47429C5.02857 3.47429 3.47428 5.02857 3.47428 6.94857C3.47428 8.86857 5.02857 10.4229 6.94857 10.4229C8.86857 10.4229 10.4229 8.86857 10.4229 6.94857C10.4229 5.02857 8.86857 3.47429 6.94857 3.47429Z" fill="#130F40"/>
<path d="M23.9539 32C20.1139 32 17.0054 28.8914 17.0054 25.0514C17.0054 21.2114 20.1139 18.1028 23.9539 18.1028C27.7939 18.1028 30.9025 21.2114 30.9025 25.0514C30.9025 28.8914 27.7939 32 23.9539 32ZM23.9539 21.5314C22.0339 21.5314 20.4797 23.0857 20.4797 25.0057C20.4797 26.9257 22.0339 28.48 23.9539 28.48C25.8739 28.48 27.4282 26.9257 27.4282 25.0057C27.4282 23.1314 25.8739 21.5314 23.9539 21.5314Z" fill="#130F40"/>
<path d="M23.8836 0.246666L4.15576 29.7851L7.04498 31.7147L26.7728 2.17628L23.8836 0.246666Z" fill="#130F40"/>
</svg>
