<?xml version="1.0" encoding="UTF-8" standalone="no"?>
<svg
   xmlns:dc="http://purl.org/dc/elements/1.1/"
   xmlns:cc="http://creativecommons.org/ns#"
   xmlns:rdf="http://www.w3.org/1999/02/22-rdf-syntax-ns#"
   xmlns:svg="http://www.w3.org/2000/svg"
   xmlns="http://www.w3.org/2000/svg"
   xmlns:sodipodi="http://sodipodi.sourceforge.net/DTD/sodipodi-0.dtd"
   xmlns:inkscape="http://www.inkscape.org/namespaces/inkscape"
   version="1.1"
   x="0px"
   y="0px"
   viewBox="0 0 100 125"
   id="svg10"
   sodipodi:docname="noun_Brain_1142992.svg"
   inkscape:version="0.92.5 (2060ec1f9f, 2020-04-08)">
  <metadata
     id="metadata16">
    <rdf:RDF>
      <cc:Work
         rdf:about="">
        <dc:format>image/svg+xml</dc:format>
        <dc:type
           rdf:resource="http://purl.org/dc/dcmitype/StillImage" />
      </cc:Work>
    </rdf:RDF>
  </metadata>
  <defs
     id="defs14" />
  <sodipodi:namedview
     pagecolor="#ffffff"
     bordercolor="#666666"
     borderopacity="1"
     objecttolerance="10"
     gridtolerance="10"
     guidetolerance="10"
     inkscape:pageopacity="0"
     inkscape:pageshadow="2"
     inkscape:window-width="1920"
     inkscape:window-height="1148"
     id="namedview12"
     showgrid="false"
     inkscape:zoom="3.694875"
     inkscape:cx="47.08819"
     inkscape:cy="47.156733"
     inkscape:window-x="1920"
     inkscape:window-y="0"
     inkscape:window-maximized="1"
     inkscape:current-layer="svg10" />
  <g
     transform="translate(0,-952.36218)"
     id="g4">
    <path
       style="text-indent:0;text-transform:none;direction:ltr;block-progression:tb;baseline-shift:baseline;color:#000000;enable-background:accumulate;"
       d="m 37.00015,958.36269 c -0.244,0 -0.4236,0.0147 -0.5938,0.0312 -0.027,0.003 -0.069,-0.002 -0.094,0 -7.3947,0.3579 -13.3125,6.48871 -13.3125,13.96865 0,1.0289 0.3183,1.94529 0.5312,2.90618 -7.2543,2.32939 -12.5312,9.08994 -12.5312,17.09369 0,2.30858 0.5506,4.45317 1.3438,6.46875 -3.8198,3.29834 -6.3438,8.09554 -6.3438,13.53124 0,6.9289 4.0201,12.8387 9.7812,15.8436 0.6499,6.5585 6.1528,11.7499 12.875,11.7499 0.6391,0 1.2022,-0.1896 1.8126,-0.2812 1.0428,3.811 4.4033,6.6875 8.5312,6.6875 4.5121,0 8.2497,-3.368 8.875,-7.7187 0.018,-0.127 0.073,-0.3435 0.094,-0.5937 l 0,-0.062 c 0.017,-0.1758 0.031,-0.3696 0.031,-0.625 l 0,-71.99971 c 0,-3.84337 -3.1566,-6.9999 -7,-6.9999 l -4,0 z m 22,0 c -3.8434,0 -7,3.15653 -7,6.9999 l 0,71.99971 c 0,0.2554 0.014,0.4492 0.031,0.625 l 0,0.062 c 0.021,0.2502 0.075,0.4667 0.094,0.5937 0.6253,4.3507 4.3629,7.7187 8.875,7.7187 4.1279,0 7.4884,-2.8765 8.5312,-6.6875 0.6103,0.092 1.1735,0.2812 1.8126,0.2812 6.7222,0 12.2251,-5.1914 12.875,-11.7499 5.7611,-3.0049 9.7812,-8.9147 9.7812,-15.8436 0,-5.4357 -2.524,-10.2329 -6.3438,-13.53125 0.7931,-2.01557 1.3438,-4.16017 1.3438,-6.46875 0,-8.00375 -5.2769,-14.7643 -12.5312,-17.09369 0.213,-0.96089 0.5312,-1.87728 0.5312,-2.90618 0,-7.47994 -5.9178,-13.61075 -13.3125,-13.96865 -0.025,-0.002 -0.067,0.003 -0.094,0 -0.1701,-0.0165 -0.3498,-0.0312 -0.5938,-0.0312 l -4,0 z m -22.3125,3.99992 c 0.1546,-0.016 0.2488,0 0.3125,0 l 4,0 c 1.6966,0 3,1.30339 3,2.99998 l 0,71.99971 c 0,0.065 -0.016,0.1282 -0.031,0.2812 a 2.0001998,2.0001862 0 0 0 0,0.062 c 0,0.05 -3e-4,0.1513 -0.031,0.3438 -0.3491,2.429 -2.4,4.3124 -4.9375,4.3124 -2.5375,0 -4.5884,-1.8834 -4.9375,-4.3124 -0.028,-0.1925 -0.028,-0.2941 -0.031,-0.3438 a 2.0001998,2.0001862 0 0 0 0,-0.062 c -0.015,-0.1464 -0.031,-0.2062 -0.031,-0.25 a 2.0001998,2.0001862 0 0 0 -2.5938,-1.875 c -0.8751,0.2785 -1.8106,0.4375 -2.75,0.4375 -4.9679,0 -8.9582,-3.9811 -9,-8.9375 a 2.0001998,2.0001862 0 0 0 -1.2187,-1.8125 c -4.9628,-2.15 -8.4375,-7.0726 -8.4375,-12.8436 0,-4.6842 2.2876,-8.8283 5.8125,-11.375 a 2.0001998,2.0001862 0 0 0 0.625,-2.50003 c -0.9213,-1.87439 -1.4375,-3.91728 -1.4375,-6.12496 0,-6.79426 4.8319,-12.45582 11.2188,-13.74991 a 2.0001998,2.0001862 0 0 0 1.4687,-2.68748 c -0.4372,-1.12939 -0.6875,-2.29078 -0.6875,-3.56248 0,-5.40266 4.2489,-9.74623 9.5938,-9.96873 a 2.0001998,2.0001862 0 0 0 0.094,-0.031 z m 22.3125,0 4,0 c 0.064,0 0.1579,-0.016 0.3125,0 a 2.0001998,2.0001862 0 0 0 0.094,0.031 c 5.3448,0.2225 9.5938,4.56607 9.5938,9.96873 0,1.2717 -0.2503,2.43309 -0.6875,3.56248 a 2.0001998,2.0001862 0 0 0 1.4687,2.68748 c 6.3869,1.29409 11.2188,6.95565 11.2188,13.74991 0,2.20767 -0.5162,4.25057 -1.4375,6.12496 a 2.0001998,2.0001862 0 0 0 0.625,2.50003 c 3.5249,2.5467 5.8125,6.6908 5.8125,11.375 0,5.771 -3.4757,10.6936 -8.4375,12.8436 a 2.0001998,2.0001862 0 0 0 -1.2187,1.8125 c -0.042,4.9564 -4.0321,8.9375 -9,8.9375 -0.9394,0 -1.8749,-0.159 -2.75,-0.4375 a 2.0001998,2.0001862 0 0 0 -2.5938,1.875 c -6e-4,0.044 -0.016,0.1036 -0.031,0.25 a 2.0001998,2.0001862 0 0 0 0,0.062 c 0,0.05 -3e-4,0.1513 -0.031,0.3438 -0.3491,2.429 -2.4,4.3124 -4.9375,4.3124 -2.5375,0 -4.5884,-1.8834 -4.9375,-4.3124 -0.028,-0.1925 -0.028,-0.2941 -0.031,-0.3438 a 2.0001998,2.0001862 0 0 0 0,-0.062 c -0.016,-0.153 -0.031,-0.2159 -0.031,-0.2812 l 0,-71.99971 c 0,-1.69659 1.3034,-2.99998 3,-2.99998 z"
       fill="#000000"
       fill-opacity="1"
       stroke="none"
       marker="none"
       visibility="visible"
       display="inline"
       overflow="visible"
       id="path2" />
  </g>
</svg>
