<svg width="100" height="100" viewBox="0 0 100 100" fill="none" xmlns="http://www.w3.org/2000/svg">
<path d="M50 0C49.1157 0 48.2677 0.351284 47.6424 0.976562C47.0171 1.60184 46.6658 2.44988 46.6658 3.33415C46.6658 4.21843 47.0171 5.06647 47.6424 5.69174C48.2677 6.31702 49.1157 6.66831 50 6.66831C73.9718 6.66831 93.3317 26.0282 93.3317 50C93.3317 73.9718 73.9718 93.3317 50 93.3317C26.0282 93.3317 6.6683 73.9718 6.66831 50C6.66831 49.1157 6.31703 48.2677 5.69176 47.6424C5.06648 47.0171 4.21843 46.6658 3.33415 46.6658C2.44988 46.6658 1.60183 47.0171 0.976551 47.6424C0.351276 48.2677 0 49.1157 0 50C-1.21575e-05 77.5748 22.4252 100 50 100C77.5748 100 100 77.5748 100 50C100 22.4253 77.5747 0 50 0Z" fill="#FF7979"/>
<path d="M8.14269 38.7851C7.91387 39.639 7.3552 40.3671 6.58959 40.8091C5.82398 41.2511 4.91411 41.371 4.06019 41.1422C3.20626 40.9134 2.47822 40.3546 2.03619 39.589C1.59416 38.8234 1.47438 37.9136 1.70317 37.0596C1.81647 36.6368 2.01197 36.2404 2.27845 35.8931C2.54493 35.5458 2.87717 35.2545 3.25627 35.0356C3.63536 34.8168 4.05383 34.6747 4.48783 34.6175C4.92183 34.5604 5.36285 34.5893 5.78567 34.7026C6.2085 34.8159 6.60488 35.0114 6.95217 35.2778C7.29945 35.5443 7.5908 35.8766 7.80967 36.2557C8.02854 36.6348 8.17062 37.0532 8.22775 37.4872C8.28489 37.9212 8.25598 38.3623 8.14269 38.7851Z" fill="#FF7979"/>
<path d="M19.3577 19.359C19.0482 19.6685 18.6808 19.914 18.2763 20.0815C17.8719 20.249 17.4384 20.3352 17.0007 20.3352C16.5629 20.3352 16.1294 20.249 15.725 20.0815C15.3206 19.914 14.9531 19.6685 14.6436 19.359C14.3341 19.0494 14.0886 18.682 13.9211 18.2775C13.7536 17.8731 13.6674 17.4396 13.6674 17.0019C13.6674 16.5641 13.7536 16.1307 13.9211 15.7262C14.0886 15.3218 14.3341 14.9544 14.6436 14.6448C15.2687 14.0197 16.1166 13.6686 17.0007 13.6686C17.8847 13.6686 18.7326 14.0198 19.3577 14.6449C19.9828 15.27 20.334 16.1178 20.334 17.0019C20.334 17.8859 19.9828 18.7338 19.3577 19.359Z" fill="#FF7979"/>
<path d="M38.7839 8.14364C38.3611 8.25694 37.9201 8.28583 37.4861 8.2287C37.0521 8.17156 36.6336 8.02945 36.2545 7.81058C35.8754 7.59171 35.5432 7.3004 35.2767 6.95311C35.0102 6.60583 34.8147 6.2094 34.7014 5.78657C34.4726 4.93265 34.5924 4.02279 35.0344 3.25718C35.4765 2.49158 36.2045 1.93285 37.0584 1.70404C37.9124 1.47523 38.8222 1.59508 39.5878 2.0371C40.3535 2.47912 40.9121 3.20719 41.1409 4.06111C41.2542 4.48394 41.2831 4.925 41.226 5.359C41.1689 5.793 41.0268 6.21141 40.8079 6.5905C40.5891 6.9696 40.2977 7.3019 39.9504 7.56838C39.6031 7.83486 39.2068 8.03035 38.7839 8.14364Z" fill="#FF7979"/>
<path d="M49.9512 13.2877C49.5133 13.2941 49.081 13.3866 48.6789 13.5601C48.2768 13.7336 47.9128 13.9847 47.6078 14.2989C47.3027 14.6131 47.0625 14.9843 46.901 15.3914C46.7395 15.7984 46.6597 16.2332 46.6663 16.6711V50.0003C46.6662 50.4382 46.7524 50.8718 46.9199 51.2764C47.0875 51.6809 47.3331 52.0485 47.6427 52.3581C47.9523 52.6677 48.3199 52.9132 48.7244 53.0807C49.129 53.2483 49.5626 53.3345 50.0004 53.3345H70.0053C70.4432 53.3345 70.8767 53.2483 71.2813 53.0807C71.6858 52.9132 72.0533 52.6675 72.3629 52.3579C72.6725 52.0483 72.9181 51.6807 73.0857 51.2762C73.2532 50.8717 73.3395 50.4382 73.3395 50.0003C73.3395 49.5625 73.2532 49.129 73.0857 48.7245C72.9181 48.3199 72.6725 47.9523 72.3629 47.6427C72.0533 47.3331 71.6858 47.0875 71.2813 46.9199C70.8767 46.7524 70.4432 46.6662 70.0053 46.6662H53.3346V16.6711C53.3413 16.2249 53.2583 15.782 53.0907 15.3685C52.923 14.955 52.6741 14.5792 52.3585 14.2637C52.043 13.9482 51.6674 13.6993 51.2539 13.5317C50.8403 13.364 50.3974 13.281 49.9512 13.2877Z" fill="#FF7979"/>
</svg>
