<?xml version="1.0" encoding="UTF-8" standalone="no"?>
<svg
   xmlns:dc="http://purl.org/dc/elements/1.1/"
   xmlns:cc="http://creativecommons.org/ns#"
   xmlns:rdf="http://www.w3.org/1999/02/22-rdf-syntax-ns#"
   xmlns:svg="http://www.w3.org/2000/svg"
   xmlns="http://www.w3.org/2000/svg"
   xmlns:sodipodi="http://sodipodi.sourceforge.net/DTD/sodipodi-0.dtd"
   xmlns:inkscape="http://www.inkscape.org/namespaces/inkscape"
   version="1.1"
   x="0px"
   y="0px"
   viewBox="0 0 50 62.5"
   style="enable-background:new 0 0 50 50;"
   xml:space="preserve"
   id="svg8"
   sodipodi:docname="noun_Free_1355978.svg"
   inkscape:version="0.92.5 (2060ec1f9f, 2020-04-08)"><metadata
     id="metadata14"><rdf:RDF><cc:Work
         rdf:about=""><dc:format>image/svg+xml</dc:format><dc:type
           rdf:resource="http://purl.org/dc/dcmitype/StillImage" /></cc:Work></rdf:RDF></metadata><defs
     id="defs12" /><sodipodi:namedview
     pagecolor="#ffffff"
     bordercolor="#666666"
     borderopacity="1"
     objecttolerance="10"
     gridtolerance="10"
     guidetolerance="10"
     inkscape:pageopacity="0"
     inkscape:pageshadow="2"
     inkscape:window-width="758"
     inkscape:window-height="480"
     id="namedview10"
     showgrid="false"
     inkscape:zoom="1.7417808"
     inkscape:cx="43.842541"
     inkscape:cy="5.4418775"
     inkscape:window-x="0"
     inkscape:window-y="0"
     inkscape:window-maximized="0"
     inkscape:current-layer="svg8" /><path
     d="M45.5,11.7c-0.6-0.9-1.8-1.2-2.8-0.6L24.5,23c-4.1-0.3-7.2-3.5-7.2-7.7c0-4.3,3.4-7.7,7.7-7.7c3.1,0,5.8,1.8,7.1,4.7  c0.3,0.8,1.1,1.2,1.8,1.2c0.3,0,0.5-0.1,0.8-0.2c1-0.4,1.5-1.6,1-2.6C34.2,7,30.8,4.5,27,3.8V2c0-1.1-0.9-2-2-2s-2,0.9-2,2v1.8  c-5.5,1-9.7,5.7-9.7,11.5c0,4.7,2.8,8.7,6.7,10.6L5.2,35.5c-0.9,0.6-1.2,1.8-0.6,2.8c0.4,0.6,1,0.9,1.7,0.9c0.4,0,0.8-0.1,1.1-0.3  L25.6,27c4,0.3,7.1,3.6,7.1,7.7c0,4.3-3.4,7.7-7.7,7.7c-3.1,0-5.8-1.8-7.1-4.7c-0.4-1-1.6-1.5-2.6-1c-1,0.4-1.5,1.6-1.1,2.6  c1.6,3.7,4.9,6.3,8.7,6.9V48c0,1.1,0.9,2,2,2c1.1,0,2-0.9,2-2v-1.8c5.5-1,9.7-5.7,9.7-11.5C36.7,30,34,26,30,24.1l14.9-9.7  C45.8,13.9,46.1,12.6,45.5,11.7z"
     id="path2" /></svg>