<svg width="84" height="100" viewBox="0 0 84 100" fill="none" xmlns="http://www.w3.org/2000/svg">
<path d="M82.4243 23.4C81.2243 21.6 78.8243 21 76.8243 22.2L40.4243 46C32.2243 45.4 26.0243 39 26.0243 30.6C26.0243 22 32.8243 15.2 41.4243 15.2C47.6243 15.2 53.0243 18.8 55.6243 24.6C56.2243 26.2 57.8243 27 59.2243 27C59.8243 27 60.2243 26.8 60.8243 26.6C62.8243 25.8 63.8243 23.4 62.8243 21.4C59.8243 14 53.0243 9 45.4243 7.6V4C45.4243 1.8 43.6243 0 41.4243 0C39.2243 0 37.4243 1.8 37.4243 4V7.6C26.4243 9.6 18.0243 19 18.0243 30.6C18.0243 40 23.6243 48 31.4243 51.8L1.82431 71C0.0243109 72.2 -0.575689 74.6 0.624311 76.6C1.42431 77.8 2.62431 78.4 4.02431 78.4C4.82431 78.4 5.62431 78.2 6.22431 77.8L42.6243 54C50.6243 54.6 56.8243 61.2 56.8243 69.4C56.8243 78 50.0243 84.8 41.4243 84.8C35.2243 84.8 29.8243 81.2 27.2243 75.4C26.4243 73.4 24.0243 72.4 22.0243 73.4C20.0243 74.2 19.0243 76.6 19.8243 78.6C23.0243 86 29.6243 91.2 37.2243 92.4V96C37.2243 98.2 39.0243 100 41.2243 100C43.4243 100 45.2243 98.2 45.2243 96V92.4C56.2243 90.4 64.6243 81 64.6243 69.4C64.8243 60 59.4243 52 51.4243 48.2L81.2243 28.8C83.0243 27.8 83.6243 25.2 82.4243 23.4Z" fill="#FF7979"/>
</svg>
