<svg width="32" height="32" viewBox="0 0 32 32" fill="none" xmlns="http://www.w3.org/2000/svg">
<path d="M22.2769 16.6154L12.1231 22.4615C12.0295 22.573 11.8995 22.6477 11.7561 22.6724C11.6127 22.697 11.4652 22.6701 11.3397 22.5963C11.2143 22.5225 11.1191 22.4067 11.071 22.2693C11.0229 22.132 11.025 21.9821 11.0769 21.8461V10.1538C11.025 10.0179 11.0229 9.86798 11.071 9.73064C11.1191 9.59331 11.2143 9.47747 11.3397 9.40369C11.4652 9.32991 11.6127 9.30296 11.7561 9.32764C11.8995 9.35231 12.0295 9.427 12.1231 9.53846L22.2769 15.3846C22.3948 15.4386 22.4946 15.5253 22.5646 15.6344C22.6346 15.7435 22.6718 15.8704 22.6718 16C22.6718 16.1296 22.6346 16.2565 22.5646 16.3656C22.4946 16.4747 22.3948 16.5614 22.2769 16.6154ZM32 16C32 19.1645 31.0616 22.2579 29.3035 24.8891C27.5454 27.5203 25.0466 29.5711 22.1229 30.7821C19.1993 31.9931 15.9823 32.3099 12.8786 31.6926C9.77486 31.0752 6.92394 29.5513 4.6863 27.3137C2.44866 25.0761 0.924806 22.2251 0.307443 19.1214C-0.309921 16.0177 0.00693255 12.8007 1.21793 9.87706C2.42894 6.95344 4.4797 4.45459 7.11088 2.69649C9.74207 0.938383 12.8355 0 16 0C20.2435 0 24.3131 1.68571 27.3137 4.68629C30.3143 7.68687 32 11.7565 32 16ZM29.5385 16C29.5385 13.3223 28.7444 10.7048 27.2568 8.47843C25.7692 6.25204 23.6548 4.51679 21.1809 3.49209C18.7071 2.4674 15.985 2.19929 13.3588 2.72168C10.7326 3.24406 8.32026 4.53347 6.42687 6.42686C4.53348 8.32025 3.24407 10.7326 2.72168 13.3588C2.1993 15.985 2.4674 18.7071 3.4921 21.1809C4.51679 23.6548 6.25205 25.7692 8.47844 27.2568C10.7048 28.7444 13.3223 29.5385 16 29.5385C19.5906 29.5385 23.0342 28.1121 25.5731 25.5731C28.1121 23.0342 29.5385 19.5906 29.5385 16Z" fill="#130F40"/>
</svg>