<?xml version="1.0" encoding="UTF-8" standalone="no"?>
<svg
   xmlns:dc="http://purl.org/dc/elements/1.1/"
   xmlns:cc="http://creativecommons.org/ns#"
   xmlns:rdf="http://www.w3.org/1999/02/22-rdf-syntax-ns#"
   xmlns:svg="http://www.w3.org/2000/svg"
   xmlns="http://www.w3.org/2000/svg"
   xmlns:sodipodi="http://sodipodi.sourceforge.net/DTD/sodipodi-0.dtd"
   xmlns:inkscape="http://www.inkscape.org/namespaces/inkscape"
   viewBox="0 0 15.875 15.874999"
   version="1.1"
   x="0px"
   y="0px"
   id="svg18"
   sodipodi:docname="time.svg"
   width="15.875"
   height="15.875"
   inkscape:version="0.92.5 (2060ec1f9f, 2020-04-08)">
  <metadata
     id="metadata24">
    <rdf:RDF>
      <cc:Work
         rdf:about="">
        <dc:format>image/svg+xml</dc:format>
        <dc:type
           rdf:resource="http://purl.org/dc/dcmitype/StillImage" />
        <dc:title></dc:title>
      </cc:Work>
    </rdf:RDF>
  </metadata>
  <defs
     id="defs22" />
  <sodipodi:namedview
     pagecolor="#ffffff"
     bordercolor="#666666"
     borderopacity="1"
     objecttolerance="10"
     gridtolerance="10"
     guidetolerance="10"
     inkscape:pageopacity="0"
     inkscape:pageshadow="2"
     inkscape:window-width="1920"
     inkscape:window-height="1148"
     id="namedview20"
     showgrid="false"
     fit-margin-top="0"
     fit-margin-left="0"
     fit-margin-right="0"
     fit-margin-bottom="0"
     inkscape:zoom="15.42916"
     inkscape:cx="18.457723"
     inkscape:cy="3.7066326"
     inkscape:window-x="1920"
     inkscape:window-y="0"
     inkscape:window-maximized="1"
     inkscape:current-layer="svg18" />
  <g
     transform="translate(-0.52929688,-280.5957)"
     id="g12">
    <path
       style="color:#000000;font-style:normal;font-variant:normal;font-weight:normal;font-stretch:normal;font-size:medium;line-height:normal;font-family:sans-serif;font-variant-ligatures:normal;font-variant-position:normal;font-variant-caps:normal;font-variant-numeric:normal;font-variant-alternates:normal;font-feature-settings:normal;text-indent:0;text-align:start;text-decoration:none;text-decoration-line:none;text-decoration-style:solid;text-decoration-color:#000000;letter-spacing:normal;word-spacing:normal;text-transform:none;writing-mode:lr-tb;direction:ltr;text-orientation:mixed;dominant-baseline:auto;baseline-shift:baseline;text-anchor:start;white-space:normal;shape-padding:0;clip-rule:nonzero;display:inline;overflow:visible;visibility:visible;opacity:1;isolation:auto;mix-blend-mode:normal;color-interpolation:sRGB;color-interpolation-filters:linearRGB;solid-color:#000000;solid-opacity:1;vector-effect:none;fill:#000000;fill-opacity:1;fill-rule:nonzero;stroke:none;stroke-width:1.0583334;stroke-linecap:round;stroke-linejoin:round;stroke-miterlimit:4;stroke-dasharray:none;stroke-dashoffset:0;stroke-opacity:1;paint-order:stroke fill markers;color-rendering:auto;image-rendering:auto;shape-rendering:auto;text-rendering:auto;enable-background:accumulate"
       d="m 8.4667969,280.5957 a 0.5293,0.5293 0 1 0 0,1.0586 c 3.8055251,0 6.8789041,3.07338 6.8789061,6.8789 4e-6,3.80553 -3.073378,6.87891 -6.8789061,6.87891 -3.8055289,0 -6.8789079,-3.07338 -6.8789063,-6.87891 a 0.52929686,0.52929686 0 1 0 -1.05859372,0 c -1.93e-6,4.3775 3.56000462,7.9375 7.93750002,7.9375 4.3774951,0 7.9375041,-3.56 7.9375001,-7.9375 -2e-6,-4.37749 -3.56001,-7.9375 -7.9375001,-7.9375 z"
       id="path2"
       inkscape:connector-curvature="0" />
    <path
       transform="rotate(15)"
       style="opacity:1;fill:#000000;fill-opacity:1;stroke:none;stroke-width:1.0583334;stroke-linecap:round;stroke-linejoin:round;stroke-miterlimit:4;stroke-dasharray:none;stroke-dashoffset:0;stroke-opacity:1;paint-order:stroke fill markers"
       d="m 75.976921,276.51044 a 0.5291667,0.5291667 0 0 1 -0.529167,0.52916 0.5291667,0.5291667 0 0 1 -0.529167,-0.52916 0.5291667,0.5291667 0 0 1 0.529167,-0.52917 0.5291667,0.5291667 0 0 1 0.529167,0.52917 z"
       id="path4"
       inkscape:connector-curvature="0" />
    <path
       transform="rotate(45)"
       style="opacity:1;fill:#000000;fill-opacity:1;stroke:none;stroke-width:1.0583334;stroke-linecap:round;stroke-linejoin:round;stroke-miterlimit:4;stroke-dasharray:none;stroke-dashoffset:0;stroke-opacity:1;paint-order:stroke fill markers"
       d="m 203.13154,198.037 a 0.5291667,0.5291667 0 0 1 -0.52917,0.52917 0.5291667,0.5291667 0 0 1 -0.52917,-0.52917 0.5291667,0.5291667 0 0 1 0.52917,-0.52916 0.5291667,0.5291667 0 0 1 0.52917,0.52916 z"
       id="path6"
       inkscape:connector-curvature="0" />
    <path
       transform="rotate(75)"
       style="opacity:1;fill:#000000;fill-opacity:1;stroke:none;stroke-width:1.0583334;stroke-linecap:round;stroke-linejoin:round;stroke-miterlimit:4;stroke-dasharray:none;stroke-dashoffset:0;stroke-opacity:1;paint-order:stroke fill markers"
       d="m 274.01394,66.49971 a 0.5291667,0.5291667 0 0 1 -0.52917,0.529167 0.5291667,0.5291667 0 0 1 -0.52916,-0.529167 0.5291667,0.5291667 0 0 1 0.52916,-0.529167 0.5291667,0.5291667 0 0 1 0.52917,0.529167 z"
       id="path8"
       inkscape:connector-curvature="0" />
    <path
       style="color:#000000;font-style:normal;font-variant:normal;font-weight:normal;font-stretch:normal;font-size:medium;line-height:normal;font-family:sans-serif;font-variant-ligatures:normal;font-variant-position:normal;font-variant-caps:normal;font-variant-numeric:normal;font-variant-alternates:normal;font-feature-settings:normal;text-indent:0;text-align:start;text-decoration:none;text-decoration-line:none;text-decoration-style:solid;text-decoration-color:#000000;letter-spacing:normal;word-spacing:normal;text-transform:none;writing-mode:lr-tb;direction:ltr;text-orientation:mixed;dominant-baseline:auto;baseline-shift:baseline;text-anchor:start;white-space:normal;shape-padding:0;clip-rule:nonzero;display:inline;overflow:visible;visibility:visible;opacity:1;isolation:auto;mix-blend-mode:normal;color-interpolation:sRGB;color-interpolation-filters:linearRGB;solid-color:#000000;solid-opacity:1;vector-effect:none;fill:#000000;fill-opacity:1;fill-rule:nonzero;stroke:none;stroke-width:1.0583334;stroke-linecap:round;stroke-linejoin:round;stroke-miterlimit:4;stroke-dasharray:none;stroke-dashoffset:0;stroke-opacity:1;color-rendering:auto;image-rendering:auto;shape-rendering:auto;text-rendering:auto;enable-background:accumulate"
       d="M 8.4589844,282.70508 A 0.52921962,0.52921962 0 0 0 7.9375,283.24219 v 5.29101 a 0.52921962,0.52921962 0 0 0 0.5292969,0.5293 h 3.1757811 a 0.529295,0.529295 0 1 0 0,-1.05859 H 8.9960938 v -4.76172 a 0.52921962,0.52921962 0 0 0 -0.5371094,-0.53711 z"
       id="path10"
       inkscape:connector-curvature="0" />
  </g>
</svg>
