<svg width="100" height="100" viewBox="0 0 100 100" fill="none" xmlns="http://www.w3.org/2000/svg">
<path d="M35.2276 0.000554865C34.9503 0.000554865 34.7463 0.0172469 34.5528 0.0359969C34.5222 0.039406 34.4744 0.0337241 34.446 0.0359969C26.043 0.442701 19.3182 7.40958 19.3182 15.9095C19.3182 17.0787 19.6799 18.1201 19.9218 19.212C11.6783 21.859 5.68182 29.5415 5.68182 38.6366C5.68182 41.26 6.3075 43.6971 7.20886 45.9875C2.86818 49.7356 0 55.187 0 61.3639C0 69.2377 4.5683 75.9534 11.115 79.368C11.8535 86.8209 18.1068 92.7202 25.7457 92.7202C26.4719 92.7202 27.1118 92.5047 27.8055 92.4006C28.9905 96.7312 32.8092 100 37.5 100C42.6274 100 46.8747 96.1728 47.5852 91.2288C47.6057 91.0845 47.6682 90.8384 47.692 90.5541V90.4837C47.7114 90.2839 47.7273 90.0636 47.7273 89.7734V7.95559C47.7273 3.58812 44.1402 0.00117909 39.7727 0.00117909H35.2273L35.2276 0.000554865ZM60.2276 0.000554865C55.8601 0.000554865 52.2731 3.58756 52.2731 7.95503V89.7729C52.2731 90.0631 52.289 90.2833 52.3083 90.4831V90.5536C52.3322 90.8379 52.3935 91.0838 52.4151 91.2281C53.1257 96.1721 57.373 99.9994 62.5003 99.9994C67.1911 99.9994 71.0099 96.7307 72.1949 92.4C72.8884 92.5046 73.5284 92.7196 74.2547 92.7196C81.8935 92.7196 88.1468 86.8202 88.8853 79.3673C95.432 75.9527 100 69.237 100 61.3633C100 55.1864 97.1322 49.735 92.7915 45.9869C93.6927 43.6964 94.3185 41.2594 94.3185 38.636C94.3185 29.5408 88.322 21.8584 80.0785 19.2114C80.3206 18.1194 80.6822 17.0781 80.6822 15.9089C80.6822 7.40895 73.9574 0.442147 65.5543 0.035442C65.5259 0.0331693 65.4782 0.0388511 65.4475 0.035442C65.2542 0.016692 65.05 0 64.7727 0H60.2273L60.2276 0.000554865ZM34.8725 4.54594C35.0482 4.52776 35.1552 4.54594 35.2276 4.54594H39.7731C41.701 4.54594 43.1822 6.02709 43.1822 7.95503V89.7729C43.1822 89.8467 43.164 89.9186 43.1469 90.0925C43.1466 90.116 43.1466 90.1393 43.1469 90.1628C43.1469 90.2196 43.1466 90.3348 43.1117 90.5536C42.715 93.3138 40.3844 95.454 37.5009 95.454C34.6174 95.454 32.2868 93.3138 31.8901 90.5536C31.8583 90.3348 31.8583 90.2193 31.8549 90.1628C31.8553 90.1393 31.8553 90.116 31.8549 90.0925C31.8378 89.9261 31.8197 89.8581 31.8197 89.8084C31.8135 89.4555 31.7252 89.1088 31.5619 88.796C31.3986 88.4832 31.1646 88.2128 30.8786 88.006C30.5926 87.7993 30.2624 87.662 29.9142 87.605C29.5659 87.548 29.2091 87.5729 28.8722 87.6777C27.8777 87.9942 26.8147 88.1749 25.7472 88.1749C20.1018 88.1749 15.5674 83.6509 15.5199 78.0186C15.5135 77.578 15.3793 77.1487 15.1334 76.7831C14.8875 76.4174 14.5406 76.1311 14.135 75.9589C8.49546 73.5158 4.54693 67.9219 4.54693 61.3639C4.54693 56.041 7.14648 51.3318 11.152 48.4378C11.5863 48.1239 11.8957 47.6667 12.0256 47.1469C12.1556 46.6271 12.0977 46.0781 11.8623 45.5968C10.8153 43.4668 10.2288 41.1454 10.2288 38.6366C10.2288 30.9159 15.7195 24.4823 22.9774 23.0117C23.3025 22.9462 23.6093 22.8104 23.8764 22.6138C24.1434 22.4172 24.3642 22.1645 24.5233 21.8735C24.6823 21.5825 24.7757 21.2602 24.797 20.9293C24.8183 20.5984 24.7668 20.2668 24.6464 19.9578C24.1495 18.6744 23.8651 17.3546 23.8651 15.9095C23.8651 9.77012 28.6934 4.83422 34.7672 4.58138C34.8031 4.57052 34.8387 4.55877 34.874 4.54615L34.8725 4.54594ZM60.2276 4.54594H64.7731C64.8458 4.54594 64.9525 4.52776 65.1282 4.54594C65.1635 4.55856 65.1991 4.57031 65.235 4.58117C71.3086 4.83401 76.137 9.76991 76.137 15.9093C76.137 17.3544 75.8526 18.6741 75.3558 19.9575C75.2353 20.2665 75.1839 20.5981 75.2052 20.929C75.2264 21.26 75.3199 21.5823 75.4789 21.8733C75.6379 22.1643 75.8587 22.417 76.1258 22.6136C76.3928 22.8102 76.6997 22.946 77.0248 23.0115C84.2826 24.4821 89.7734 30.9156 89.7734 38.6364C89.7734 41.1451 89.1868 43.4666 88.1399 45.5966C87.9044 46.0779 87.8466 46.6269 87.9765 47.1467C88.1065 47.6665 88.4159 48.1236 88.8501 48.4375C92.8557 51.3315 95.4552 56.0407 95.4552 61.3636C95.4552 67.9216 91.5056 73.5155 85.8672 75.9587C85.4615 76.1308 85.1146 76.4171 84.8688 76.7828C84.6229 77.1485 84.4886 77.5777 84.4823 78.0183C84.4346 83.6506 79.9003 88.1746 74.255 88.1746C73.1875 88.1746 72.1244 87.9939 71.13 87.6774C70.793 87.5726 70.4363 87.5477 70.088 87.6047C69.7397 87.6617 69.4095 87.799 69.1235 88.0058C68.8375 88.2125 68.6036 88.4831 68.4402 88.7959C68.2769 89.1087 68.1887 89.4553 68.1825 89.8081C68.1818 89.8581 68.1643 89.9258 68.1473 90.0922C68.1469 90.1157 68.1469 90.1392 68.1473 90.1627C68.1473 90.2195 68.1469 90.3345 68.112 90.5533C67.7153 93.3135 65.3848 95.4537 62.5012 95.4537C59.6177 95.4537 57.2872 93.3135 56.8905 90.5533C56.8586 90.3345 56.8586 90.2191 56.8552 90.1627C56.8556 90.1392 56.8556 90.1157 56.8552 90.0922C56.837 89.9183 56.82 89.8468 56.82 89.7726V7.95475C56.82 6.02681 58.3011 4.54573 60.2291 4.54573L60.2276 4.54594Z" fill="#FF7979"/>
</svg>
