<svg width="37" height="32" viewBox="0 0 37 32" fill="none" xmlns="http://www.w3.org/2000/svg">
<path d="M9.38488 32C24.2461 32 32.3746 19.6876 32.3746 9.01031C32.3746 8.6606 32.3746 8.31246 32.3509 7.9659C33.9323 6.8221 35.2973 5.40587 36.3821 3.78352C34.9074 4.43695 33.3431 4.86547 31.7413 5.05477C33.428 4.04499 34.6904 2.45677 35.2936 0.585691C33.7075 1.52685 31.9723 2.19014 30.1629 2.54692C28.9446 1.25154 27.3334 0.393771 25.5786 0.106353C23.8237 -0.181066 22.0231 0.117889 20.4553 0.956954C18.8874 1.79602 17.6399 3.12842 16.9056 4.74797C16.1713 6.36751 15.9913 8.18392 16.3933 9.9161C13.1809 9.75505 10.0383 8.92025 7.16946 7.46589C4.30063 6.01152 1.7697 3.9701 -0.259006 1.47415C-1.29225 3.2529 -1.60871 5.35858 -1.14396 7.36247C-0.679202 9.36635 0.531821 11.1178 2.24254 12.2601C0.956704 12.222 -0.301099 11.8751 -1.42472 11.2488C-1.42472 11.2819 -1.42472 11.3165 -1.42472 11.3512C-1.42421 13.2167 -0.778438 15.0245 0.403057 16.4682C1.58455 17.9118 3.22903 18.9023 5.05758 19.2717C3.86803 19.5961 2.61995 19.6435 1.40922 19.4103C1.92553 21.0158 2.93073 22.4198 4.28422 23.4259C5.63772 24.4319 7.27182 24.9898 8.95798 25.0215C6.09685 27.2701 2.56242 28.4908 -1.07658 28.4871C-1.71945 28.4859 -2.36169 28.447 -3 28.3705C0.695042 30.7418 4.99443 31.9996 9.38488 31.9937" fill="#1DA1F2"/>
</svg>
